    <svg xmlns="http://www.w3.org/2000/svg" width="512" height="512" style="">
      <rect
        id="backgroundrect"
        width="100%"
        height="100%"
        x="0"
        y="0"
        fill="none"
        stroke="none"
      />

      <g class="currentLayer" style="">
        <title>Layer 1</title>
        <g
          
          stroke="none"
          id="svg_1"
          class="selected"
          fill-opacity="1"
        >
          <path
            d="M65.1,1.500015 c-15,3.3 -25.4,8.3 -36.3,17.5 c-11.7,9.7 -20.9,23.7 -25.5,38.5 l-2.80,9 l0,189.5 l0,189.5 l2.80,9 c8,25.9 28.3,46.2 54.2,54.2 l9,2.80 l132.6,0 l132.5,0 l4.1,-2.7 c6.2,-4.1 8.8,-9 8.8,-16.8 c0,-7.8 -2.6,-12.7 -8.8,-16.8 l-4.1,-2.7 l-130,-0.5 l-130.1,-0.5 l-5.8,-2.30 c-11.1,-4.5 -19.5,-13.3 -23.4,-24.6 c-1.70,-4.8 -1.8,-14.6 -1.8,-189.10000000000002 l0,-184 l2.30,-5.8 c4.5,-11.1 13.3,-19.5 24.6,-23.4 c4.8,-1.70 14.6,-1.8 188.60000000000002,-1.8 c174,0 183.8,0.1 188.60000000000002,1.8 c11.3,3.9 20.1,12.3 24.6,23.4 l2.30,5.8 l0.5,130.6 l0.5,130.5 l2.7,4.1 c4.1,6.2 9,8.8 16.8,8.8 c7.8,0 12.7,-2.6 16.8,-8.8 l2.7,-4.1 l0,-133 l0,-133.1 l-2.80,-9 c-8,-25.9 -28.3,-46.2 -54.2,-54.2 l-9,-2.80 l-187,-0.2 c-156.70000000000002,-0.1 -188,0.1 -193.4,1.20 z"
            style=""
            stroke-width="0"
            id="svg_2"
            
            fill-opacity="1"
          />
          <path
            d="M113.2,94.10001499999993 c-4.7,1.40 -10.9,7.9 -12.3,13.1 c-2.30,8.9 1.20,18.2 8.8,22.9 l3.80,2.4 l142.5,0 l142.5,0 l3.80,-2.4 c2.1,-1.3 5,-4.2 6.5,-6.4 c2.30,-3.4 2.7,-5.2 2.7,-10.7 c0,-5.5 -0.4,-7.3 -2.7,-10.7 c-1.5,-2.2 -4.4,-5.1 -6.5,-6.4 l-3.80,-2.4 l-141,-0.2 c-87.2,-0.1 -142.3,0.2 -144.3,0.8 z"
            style="paint-order: fill; stroke: rgb(186, 218, 85);"
            stroke-width="0"
            id="svg_3"
            
            fill-opacity="1"
          />
          <path
            d="M113.2,174.10001499999993 c-4.7,1.40 -10.9,7.9 -12.3,13.1 c-2.30,8.9 1.20,18.2 8.8,22.9 l3.80,2.4 l142.5,0 l142.5,0 l3.80,-2.4 c2.1,-1.3 5,-4.2 6.5,-6.4 c2.30,-3.4 2.7,-5.2 2.7,-10.7 c0,-5.5 -0.4,-7.3 -2.7,-10.7 c-1.5,-2.2 -4.4,-5.1 -6.5,-6.4 l-3.80,-2.4 l-141,-0.2 c-87.2,-0.1 -142.3,0.2 -144.3,0.8 z"
            style=""
            stroke-width="0"
            id="svg_4"
            
            fill-opacity="1"
          />
          <path
            d="M113.2,254.100015 c-4.7,1.40 -10.9,8 -12.3,13.1 c-2.30,8.9 1.20,18.2 8.8,22.9 l3.80,2.4 l52.5,0 l52.5,0 l3.80,-2.4 c2.1,-1.3 5,-4.2 6.5,-6.4 c2.30,-3.4 2.7,-5.2 2.7,-10.7 c0,-5.5 -0.4,-7.3 -2.7,-10.7 c-1.5,-2.2 -4.4,-5.1 -6.5,-6.4 l-3.80,-2.4 l-51,-0.2 c-30.4,-0.1 -52.3,0.2 -54.3,0.8 z"
            style=""
            stroke-width="0"
            id="svg_5"
            
            fill-opacity="1"
          />
          <path
            d="M285.1,271.400015 c-7.1,2.5 -13.1,11.2 -13.1,18.8 c0,3.6 22.9,85.6 25,89.8 c1,1.90 28.5,30.1 61.2,62.6 c56.6,56.4 59.6,59.3 66.8,62.8 c24.1,11.7 50.4,7.4 69.1,-11.3 c18.7,-18.7 23,-45.2 11.3,-69.1 c-3.5,-7 -7.2,-10.9 -61.8,-66.3 c-32,-32.4 -59.9,-59.9 -62.2,-61.3 c-5,-2.9 -85.3,-27.4 -89.7,-27.3 c-1.8,0 -4.7,0.60 -6.6,1.3 zm55.7,54.2 l18.7,5.7 l37.2,37.1 l37.3,37.1 l-14.2,14.2 l-14.3,14.3 l-36.6,-36.6 l-36.6,-36.6 l-5.2,-18.9 c-2.80,-10.4 -5.4,-19.6 -5.7,-20.4 c-0.4,-0.8 -0.30,-1.5 0.1,-1.5 c0.30,0 9,2.5 19.3,5.6 zm127.5,115.3 c2.80,4 3.2,5.4 3.2,11.1 c0,5.4 -0.5,7.2 -2.7,10.3 c-7.4,10.8 -19.6,12.7 -29.9,4.5 l-5.1,-4 l14.3,-14.4 c15.8,-15.8 14.7,-15.4 20.2,-7.5 z"
            style=""
            stroke-width="0"
            id="svg_6"
            
            fill-opacity="1"
          />
        </g>
      </g>
    </svg>